<mxfile host="app.diagrams.net" agent="Mozilla/5.0 (Windows NT 10.0; Win64; x64) AppleWebKit/537.36 (KHTML, like Gecko) Chrome/132.0.0.0 Safari/537.36 Edg/132.0.0.0" version="26.0.14">
  <diagram name="Page-1" id="J9cKl2J1FKL100fRJTS5">
    <mxGraphModel dx="872" dy="469" grid="1" gridSize="10" guides="1" tooltips="1" connect="1" arrows="1" fold="1" page="1" pageScale="1" pageWidth="850" pageHeight="1100" math="0" shadow="0">
      <root>
        <mxCell id="0" />
        <mxCell id="1" parent="0" />
        <mxCell id="WfoEYYGsbuLjsaZug1s2-14" style="edgeStyle=orthogonalEdgeStyle;rounded=0;orthogonalLoop=1;jettySize=auto;html=1;exitX=0.5;exitY=1;exitDx=0;exitDy=0;entryX=0.5;entryY=0;entryDx=0;entryDy=0;" edge="1" parent="1" source="WfoEYYGsbuLjsaZug1s2-1" target="WfoEYYGsbuLjsaZug1s2-2">
          <mxGeometry relative="1" as="geometry">
            <mxPoint x="426" y="100" as="targetPoint" />
          </mxGeometry>
        </mxCell>
        <mxCell id="WfoEYYGsbuLjsaZug1s2-1" value="START" style="ellipse;whiteSpace=wrap;html=1;" vertex="1" parent="1">
          <mxGeometry x="348" y="10" width="155" height="80" as="geometry" />
        </mxCell>
        <mxCell id="WfoEYYGsbuLjsaZug1s2-15" style="edgeStyle=orthogonalEdgeStyle;rounded=0;orthogonalLoop=1;jettySize=auto;html=1;exitX=0.5;exitY=1;exitDx=0;exitDy=0;entryX=0.5;entryY=0;entryDx=0;entryDy=0;" edge="1" parent="1" source="WfoEYYGsbuLjsaZug1s2-2" target="WfoEYYGsbuLjsaZug1s2-3">
          <mxGeometry relative="1" as="geometry" />
        </mxCell>
        <mxCell id="WfoEYYGsbuLjsaZug1s2-2" value="ENTER NUMBER" style="shape=parallelogram;perimeter=parallelogramPerimeter;whiteSpace=wrap;html=1;fixedSize=1;" vertex="1" parent="1">
          <mxGeometry x="348" y="110" width="160" height="70" as="geometry" />
        </mxCell>
        <mxCell id="WfoEYYGsbuLjsaZug1s2-17" style="edgeStyle=orthogonalEdgeStyle;rounded=0;orthogonalLoop=1;jettySize=auto;html=1;exitX=0.5;exitY=1;exitDx=0;exitDy=0;entryX=0.5;entryY=0;entryDx=0;entryDy=0;" edge="1" parent="1" source="WfoEYYGsbuLjsaZug1s2-3" target="WfoEYYGsbuLjsaZug1s2-4">
          <mxGeometry relative="1" as="geometry" />
        </mxCell>
        <mxCell id="WfoEYYGsbuLjsaZug1s2-3" value="REM=NUM%2" style="rounded=0;whiteSpace=wrap;html=1;" vertex="1" parent="1">
          <mxGeometry x="340" y="210" width="170" height="80" as="geometry" />
        </mxCell>
        <mxCell id="WfoEYYGsbuLjsaZug1s2-5" style="edgeStyle=orthogonalEdgeStyle;rounded=0;orthogonalLoop=1;jettySize=auto;html=1;" edge="1" parent="1" source="WfoEYYGsbuLjsaZug1s2-4">
          <mxGeometry relative="1" as="geometry">
            <mxPoint x="670" y="440" as="targetPoint" />
          </mxGeometry>
        </mxCell>
        <mxCell id="WfoEYYGsbuLjsaZug1s2-6" style="edgeStyle=orthogonalEdgeStyle;rounded=0;orthogonalLoop=1;jettySize=auto;html=1;exitX=0;exitY=0.5;exitDx=0;exitDy=0;" edge="1" parent="1" source="WfoEYYGsbuLjsaZug1s2-4">
          <mxGeometry relative="1" as="geometry">
            <mxPoint x="160" y="440" as="targetPoint" />
          </mxGeometry>
        </mxCell>
        <mxCell id="WfoEYYGsbuLjsaZug1s2-4" value="REM=0" style="rhombus;whiteSpace=wrap;html=1;" vertex="1" parent="1">
          <mxGeometry x="340" y="320" width="165" height="80" as="geometry" />
        </mxCell>
        <mxCell id="WfoEYYGsbuLjsaZug1s2-7" value="YES" style="text;html=1;align=center;verticalAlign=middle;resizable=0;points=[];autosize=1;strokeColor=none;fillColor=none;" vertex="1" parent="1">
          <mxGeometry x="530" y="340" width="50" height="30" as="geometry" />
        </mxCell>
        <mxCell id="WfoEYYGsbuLjsaZug1s2-8" value="NO" style="text;html=1;align=center;verticalAlign=middle;resizable=0;points=[];autosize=1;strokeColor=none;fillColor=none;" vertex="1" parent="1">
          <mxGeometry x="260" y="338" width="40" height="30" as="geometry" />
        </mxCell>
        <mxCell id="WfoEYYGsbuLjsaZug1s2-13" style="edgeStyle=orthogonalEdgeStyle;rounded=0;orthogonalLoop=1;jettySize=auto;html=1;exitX=0.5;exitY=1;exitDx=0;exitDy=0;entryX=1;entryY=0.5;entryDx=0;entryDy=0;" edge="1" parent="1" source="WfoEYYGsbuLjsaZug1s2-9" target="WfoEYYGsbuLjsaZug1s2-11">
          <mxGeometry relative="1" as="geometry" />
        </mxCell>
        <mxCell id="WfoEYYGsbuLjsaZug1s2-9" value="EVEN" style="shape=parallelogram;perimeter=parallelogramPerimeter;whiteSpace=wrap;html=1;fixedSize=1;" vertex="1" parent="1">
          <mxGeometry x="610" y="440" width="120" height="60" as="geometry" />
        </mxCell>
        <mxCell id="WfoEYYGsbuLjsaZug1s2-12" style="edgeStyle=orthogonalEdgeStyle;rounded=0;orthogonalLoop=1;jettySize=auto;html=1;exitX=0.5;exitY=1;exitDx=0;exitDy=0;entryX=0;entryY=0.5;entryDx=0;entryDy=0;" edge="1" parent="1" source="WfoEYYGsbuLjsaZug1s2-10" target="WfoEYYGsbuLjsaZug1s2-11">
          <mxGeometry relative="1" as="geometry" />
        </mxCell>
        <mxCell id="WfoEYYGsbuLjsaZug1s2-10" value="ODD" style="shape=parallelogram;perimeter=parallelogramPerimeter;whiteSpace=wrap;html=1;fixedSize=1;" vertex="1" parent="1">
          <mxGeometry x="100" y="440" width="120" height="60" as="geometry" />
        </mxCell>
        <mxCell id="WfoEYYGsbuLjsaZug1s2-11" value="END" style="ellipse;whiteSpace=wrap;html=1;" vertex="1" parent="1">
          <mxGeometry x="357" y="530" width="142" height="80" as="geometry" />
        </mxCell>
      </root>
    </mxGraphModel>
  </diagram>
</mxfile>
